<?xml version="1.0" encoding="iso-8859-1"?>
<!-- Generator: Adobe Illustrator 18.0.0, SVG Export Plug-In . SVG Version: 6.00 Build 0)  -->
<!DOCTYPE svg PUBLIC "-//W3C//DTD SVG 1.1//EN" "http://www.w3.org/Graphics/SVG/1.1/DTD/svg11.dtd">
<svg version="1.1" id="Capa_1" xmlns="http://www.w3.org/2000/svg" xmlns:xlink="http://www.w3.org/1999/xlink" x="0px" y="0px"
	 viewBox="0 0 457.8 457.8" style="enable-background:new 0 0 457.8 457.8;" xml:space="preserve">
<g>
	<path d="M228.9,43.348C49.033,43.348,0,196.101,0,238.399c0,14.913,12.753,27.584,34.789,37.745
		c3.524-4.201,7.8-8.395,12.974-12.488c12.187-9.64,28.498-17.918,48.482-24.605c36.027-12.054,83.138-18.693,132.654-18.693
		s96.627,6.639,132.654,18.693c19.984,6.686,36.296,14.965,48.482,24.605c5.174,4.093,9.45,8.287,12.974,12.488
		c22.036-10.161,34.789-22.831,34.789-37.745C457.8,196.101,408.366,43.348,228.9,43.348z M228.9,195.181
		c-28.167,0-51-41.803-51-77.333s22.833-37.333,51-37.333c28.167,0,51,1.803,51,37.333S257.066,195.181,228.9,195.181z"/>
	<path d="M228.9,260.358c-93.696,0-169.652,25.414-169.652,56.764s75.956,97.33,169.652,97.33s169.652-65.98,169.652-97.33
		S322.596,260.358,228.9,260.358z"/>
</g>
<g>
</g>
<g>
</g>
<g>
</g>
<g>
</g>
<g>
</g>
<g>
</g>
<g>
</g>
<g>
</g>
<g>
</g>
<g>
</g>
<g>
</g>
<g>
</g>
<g>
</g>
<g>
</g>
<g>
</g>
</svg>
