<?xml version="1.0" encoding="UTF-8"?>
<svg width="64px" height="64px" viewBox="0 0 64 64" version="1.1" xmlns="http://www.w3.org/2000/svg" xmlns:xlink="http://www.w3.org/1999/xlink">
    <!-- Generator: Sketch 63.1 (92452) - https://sketch.com -->
    <title>eck-logo-color-64px</title>
    <desc>Created with Sketch.</desc>
    <g id="eck-logo-color-64px" stroke="none" stroke-width="1" fill="none" fill-rule="evenodd">
        <rect id="bounding-box" x="0" y="0" width="64" height="64"></rect>
        <g id="group" transform="translate(4.999500, 4.999600)">
            <path d="M32.063,27.0004 C32.063,29.7964 29.796,32.0624 27.001,32.0624 C24.205,32.0624 21.938,29.7964 21.938,27.0004 C21.938,24.2044 24.205,21.9384 27.001,21.9384 C29.796,21.9384 32.063,24.2044 32.063,27.0004" id="Fill-1" fill="#343741"></path>
            <path d="M33.2232,19.1049 C33.2662,19.1389 33.3102,19.1739 33.3532,19.2089 C34.2912,19.9729 35.5862,20.1209 36.6782,19.5979 L50.1722,13.1419 C46.8752,7.6409 41.6762,3.4169 35.4832,1.3679 L32.1192,15.9429 C31.8462,17.1219 32.2722,18.3559 33.2232,19.1049" id="Fill-3" fill="#F04E98"></path>
            <path d="M27.186,39.184 C26.919,38.003 26,37.076 24.819,36.814 C20.317,35.816 16.938,31.799 16.938,27 C16.938,22.183 20.342,18.153 24.871,17.174 C26.053,16.919 26.976,15.995 27.248,14.816 L30.611,0.248 C29.429,0.09 28.225,0 27,0 C12.088,0 -6.21724894e-14,12.089 -6.21724894e-14,27 C-6.21724894e-14,41.912 12.088,54 27,54 C28.179,54 29.337,53.916 30.475,53.77 L27.186,39.184 Z" id="Fill-5" fill="#0077CC"></path>
            <path d="M52.2857,36.4784 C53.3907,33.5284 54.0007,30.3364 54.0007,27.0004 C54.0007,23.7134 53.4117,20.5634 52.3357,17.6494 L38.7527,24.1484 C37.6537,24.6744 36.9627,25.7864 36.9616902,27.0044 L36.9616902,27.0544 C36.9587,28.2704 37.6437,29.3814 38.7377,29.9114 L52.2857,36.4784 Z" id="Fill-10" fill="#343741"></path>
            <path d="M33.311,34.8241 C33.268,34.8581 33.225,34.8921 33.182,34.9261 C32.228,35.6701 31.796,36.9011 32.062,38.0821 L35.354,52.6771 C41.56,50.6581 46.782,46.4601 50.105,40.9781 L36.64,34.4511 C35.55,33.9231 34.253,34.0641 33.311,34.8241" id="Fill-15" fill="#F04E98"></path>
        </g>
    </g>
</svg>