<svg fill="#000000" xmlns="http://www.w3.org/2000/svg" viewBox="0 0 50 50" width="50px" height="50px"><path d="M 28.605469 30.21875 C 28.605469 33.035156 28.007813 34.714844 27.003906 34.714844 C 25.957031 34.714844 25.332031 33.046875 25.332031 30.253906 C 25.332031 29.210938 25.449219 25.796875 26.984375 25.796875 C 28.488281 25.796875 28.605469 29.183594 28.605469 30.21875 Z M 44 14.601563 L 44 50 L 6 50 L 6 0 L 29.398438 0 Z M 14.671875 24.277344 L 12.863281 24.277344 L 12.863281 32.769531 C 12.863281 34.566406 12.304688 34.714844 11.632813 34.714844 C 11.394531 34.714844 11.203125 34.695313 11.074219 34.65625 L 10.789063 34.570313 L 10.617188 36.164063 L 10.796875 36.234375 C 11.03125 36.324219 11.347656 36.367188 11.734375 36.367188 C 13.738281 36.367188 14.671875 35.222656 14.671875 32.753906 Z M 22.050781 32.875 C 22.050781 31.488281 21.382813 30.378906 19.957031 29.371094 C 18.835938 28.5625 18.378906 28.199219 18.378906 27.210938 C 18.378906 26.546875 18.820313 25.832031 19.792969 25.832031 C 20.449219 25.832031 20.863281 26.074219 21.007813 26.175781 L 21.300781 26.382813 L 21.746094 24.753906 L 21.609375 24.648438 C 21.292969 24.414063 20.632813 24.175781 19.859375 24.175781 C 17.933594 24.175781 16.585938 25.515625 16.585938 27.433594 C 16.585938 28.648438 17.347656 29.785156 18.84375 30.8125 C 19.738281 31.488281 20.257813 32.058594 20.257813 32.992188 C 20.257813 34.03125 19.617188 34.679688 18.585938 34.679688 C 18.09375 34.679688 17.4375 34.496094 17.097656 34.265625 L 16.800781 34.0625 L 16.382813 35.695313 L 16.519531 35.796875 C 16.878906 36.0625 17.753906 36.335938 18.585938 36.335938 C 20.625 36.335938 22.050781 34.910156 22.050781 32.875 Z M 30.464844 30.171875 C 30.464844 26.394531 29.199219 24.140625 27.085938 24.140625 C 24.855469 24.140625 23.472656 26.476563 23.472656 30.238281 C 23.472656 34.078125 24.753906 36.367188 26.898438 36.367188 C 28.230469 36.367188 30.464844 35.5625 30.464844 30.171875 Z M 38.742188 24.277344 L 37.070313 24.277344 L 37.070313 28.621094 C 37.070313 29.925781 37.089844 31.039063 37.140625 32.261719 C 36.894531 31.585938 36.628906 30.894531 36.382813 30.253906 L 34.039063 24.277344 L 32.394531 24.277344 L 32.394531 36.234375 L 34.066406 36.234375 L 34.066406 32.023438 C 34.066406 30.492188 34.054688 29.363281 34.019531 28.371094 C 34.261719 29.066406 34.539063 29.789063 34.859375 30.566406 L 37.097656 36.234375 L 38.742188 36.234375 Z M 41.601563 15 L 29 2.398438 L 29 15 Z"/></svg>