<?xml version="1.0" encoding="iso-8859-1"?>
<!-- Generator: Adobe Illustrator 17.1.0, SVG Export Plug-In . SVG Version: 6.00 Build 0)  -->
<!DOCTYPE svg PUBLIC "-//W3C//DTD SVG 1.1//EN" "http://www.w3.org/Graphics/SVG/1.1/DTD/svg11.dtd">
<svg version="1.1" id="Capa_1" xmlns="http://www.w3.org/2000/svg" xmlns:xlink="http://www.w3.org/1999/xlink" x="0px" y="0px"
	 viewBox="0 0 294.333 294.333" style="enable-background:new 0 0 294.333 294.333;" xml:space="preserve">
<path d="M279.333,147.667H162v-28.833c0-20.219-16.115-36.167-36.333-36.167H48.333c-9.925,0-18-8.075-18-18s8.075-18,18-18h231
	c8.284,0,15-6.716,15-15s-6.716-15-15-15h-231c-26.468,0-48,21.532-48,48s21.532,48,48,48h77.334c3.676,0,6.333,2.491,6.333,6.167
	v28.833H15.333C7.049,147.667,0,154.632,0,162.917v99.25c0,8.284,7.049,15.5,15.333,15.5h264c8.284,0,14.667-7.216,14.667-15.5
	v-99.25C294,154.632,287.617,147.667,279.333,147.667z M48,262.667H31v-17h17V262.667z M48,229.667H31v-17h17V229.667z M48,196.667
	H31v-17h17V196.667z M84,262.667H67v-17h17V262.667z M84,229.667H67v-17h17V229.667z M84,196.667H67v-17h17V196.667z M119,262.667
	h-16v-17h16V262.667z M119,229.667h-16v-17h16V229.667z M119,196.667h-16v-17h16V196.667z M155,262.667h-16v-17h16V262.667z
	 M155,229.667h-16v-17h16V229.667z M155,196.667h-16v-17h16V196.667z M191,262.667h-17v-17h17V262.667z M191,229.667h-17v-17h17
	V229.667z M191,196.667h-17v-17h17V196.667z M227,262.667h-17v-17h17V262.667z M227,229.667h-17v-17h17V229.667z M227,196.667h-17
	v-17h17V196.667z M262,262.667h-16v-17h16V262.667z M262,229.667h-16v-17h16V229.667z M262,196.667h-16v-17h16V196.667z"/>
<g>
</g>
<g>
</g>
<g>
</g>
<g>
</g>
<g>
</g>
<g>
</g>
<g>
</g>
<g>
</g>
<g>
</g>
<g>
</g>
<g>
</g>
<g>
</g>
<g>
</g>
<g>
</g>
<g>
</g>
</svg>
