<svg height="60" width="120" xmlns="http://www.w3.org/2000/svg" xmlns:xlink="http://www.w3.org/1999/xlink"><linearGradient id="a" gradientUnits="userSpaceOnUse" x1="255.894" x2="255.894" y1="59.789" y2="-452"><stop offset="0" stop-color="#574c4a"/><stop offset="1" stop-color="#80716d"/></linearGradient><linearGradient id="b" gradientUnits="userSpaceOnUse" x1="380.442" x2="191.971" y1="-51.758" y2="-382.305"><stop offset="0" stop-color="#268d83"/><stop offset="1" stop-color="#2ea19e"/></linearGradient><linearGradient id="c"><stop offset="0" stop-color="#db7c7c"/><stop offset="1" stop-color="#c83737"/></linearGradient><radialGradient id="d" cx="218.61234" cy="-68.11554" gradientUnits="userSpaceOnUse" r="18.61026" xlink:href="#c"/><radialGradient id="e" cx="287.91652" cy="-68.11554" gradientUnits="userSpaceOnUse" r="18.61026" xlink:href="#c"/><g transform="matrix(.055752 0 0 .055752 5.694915 40.933248)"><path d="m0-106.196v-179.82c0-145.239 20.725-165.984 165.814-165.984h180.164c145.084 0 165.8 20.745 165.8 165.983v179.82c0 145.238-20.725 165.983-165.812 165.983h-180.154c-145.082.001-165.812-20.744-165.812-165.982z" fill="url(#a)"/><path d="m110.488-355.497c-25.148 159.435-11.991 308.697-11.991 308.697h78.63c-7.48-39.802-34.32-221.642-11.993-222.24 11.966 1.9 66.64 154.267 66.64 154.267s12.04-1.5 24.155-1.5 24.16 1.5 24.16 1.5 54.68-152.37 66.64-154.267c22.34.598-4.505 182.438-11.98 222.24h78.633s13.162-149.272-12-308.706h-72.8c-13.857.162-66.58 92.63-72.64 92.63s-58.784-92.457-72.64-92.62z" fill="url(#b)"/><path d="m240.422-65.4c0 10.278-8.333 18.6-18.612 18.6s-18.6-8.333-18.6-18.6 8.333-18.612 18.6-18.612 18.612 8.332 18.612 18.612z" fill="url(#d)"/><path d="m308.66-65.4c0 10.278-8.332 18.6-18.6 18.6s-18.6-8.333-18.6-18.6 8.322-18.612 18.604-18.612 18.604 8.332 18.604 18.612z" fill="url(#e)"/><path d="m397.664-350.226c11.348 76.812 14 150.532 13.802 205.444-.214 56.168-3.432 92.66-3.432 92.66h-66.2l-7.113 5.33h78.64s13.16-149.27-11.992-308.705zm-208.373-1.94c20.66 22.98 56.4 83.966 61.3 83.966-13.1-16.75-45.27-70.192-61.3-83.965zm-29.48 77.802c-22.33.6 4.514 182.44 11.996 222.242h-68.647l-4.66 5.33h78.634c-7.444-39.598-34.05-219.824-12.33-222.24-2.02-3.04-3.77-5.137-4.996-5.332zm181.6 0c-11.964 1.9-66.64 154.27-66.64 154.27s-12.04-1.5-24.154-1.5c-7.17 0-13.34.442-17.514.83l-1.3 6s12.04-1.498 24.154-1.498 24.158 1.5 24.158 1.5 54.26-151.372 66.476-154.27c-1.315-3.334-2.94-5.272-5.164-5.332z" opacity=".1"/><path d="m110.5-355.497c-25.166 159.434-12.005 308.697-12.005 308.697l4.63-5.205c-2.37-35.218-8.7-162.572 12.696-298.17h72.8c1.54.017 3.6 1.28 6 3.33-4.767-5.302-8.73-8.63-11.33-8.662zm218.077 0c-13.857.164-66.58 92.628-72.637 92.628 2.47 3.16 4.477 5.34 5.33 5.34 6.06 0 58.78-92.464 72.638-92.63h64.248l3.224-5.33zm-158.435 91.795c17.685 26.56 61.642 148.94 61.642 148.94l1.286-5.97c-10.853-29.757-52.205-141.32-62.595-142.97-.113.003-.222-.012-.333 0zm181.925 0c11.862 30.254-10.592 181.1-17.326 216.9l7.14-5.567c9.108-53.42 31.03-210.78 10.195-211.34z" fill="#fff" opacity=".3"/></g><g fill="#2a9790"><path d="m40.216 33.4h-.986v-6.767h6.465v6.767h-.986v-5.78h-4.492z"/><path d="m41.968 27.126h.988v6.274h-.988zm12.214.494h-5.048v4.8h5.048v.988h-6.034v-6.783h6.034z"/><path d="m48.64 29.53h2.772v.988h-2.772zm8.647 3.87h-.987v-6.767h6.402v6.767h-.988v-5.78h-4.427z"/><path d="m59.008 27.126h.988v6.274h-.988zm12.278.494h-4.986v4.8h4.985v.988h-5.97v-6.783h5.97zm3.55 5.78h-.986v-6.767h6.338v6.767h-.988v-5.78h-4.364z"/><path d="m74.662 29.53h5.03v.988h-5.03zm14.013-1.9h-5.367v4.8h5.367v.988h-6.353v-6.783h6.353zm2.277-1.014h.988v6.784h-.988zm5.648-.032h.988v6.816h-.988z"/><path d="m91.447 29.53h5.256v.988h-5.256zm14.205-1.9h-5.24v4.8h5.24v.988h-6.227v-6.783h6.227z"/><path d="m99.918 29.53h2.866v.988h-2.866zm13.17 3.886h-5.03v-6.783h5.056l.143.137c1.118 1.075 1.657 2.223 1.605 3.415-.08 1.846-1.576 3.072-1.64 3.122zm-4.045-.988h3.68c.3-.295 1.105-1.164 1.15-2.295.035-.845-.358-1.7-1.166-2.514h-3.665z"/></g></svg>