<svg xmlns="http://www.w3.org/2000/svg" viewBox="0 0 48 48"><defs><linearGradient gradientTransform="matrix(.63636 0 0 .62142-252.21-311.09)" gradientUnits="userSpaceOnUse" y2="507.8" x2="0" y1="542.8" id="0"><stop stop-color="#252525"/><stop offset="1" stop-color="#4c4c4c"/></linearGradient></defs><g transform="matrix(1.71427 0 0 1.71427 10.649-1.748)" enable-background="new"><rect width="28" height="21.13" x="-6.211" y="4.461" fill="url(#0)" rx=".994"/><g fill="#fff" stroke="#fff" stroke-linejoin="round" stroke-linecap="round" stroke-width=".175"><path d="m5.085 13.1c-.031-.029-.07-.044-.118-.044h-4.923c-.048 0-.087.015-.118.044-.031.029-.046.067-.046.112v.312c0 .046.015.083.046.112.031.029.07.044.118.044h4.923c.048 0 .087-.015.118-.044.031-.029.046-.067.046-.112v-.312c0-.046-.015-.083-.046-.112z"/><path d="m-2.792 8.489c-.034-.033-.074-.049-.118-.049-.044 0-.084.016-.118.049l-.256.244c-.034.033-.051.07-.051.112 0 .042.017.08.051.112l2.02 1.917-2.02 1.918c-.034.033-.051.07-.051.112 0 .042.017.08.051.112l.256.244c.034.033.073.049.118.049.044 0 .084-.016.118-.049l2.39-2.274c.034-.033.051-.07.051-.112 0-.042-.017-.08-.051-.112l-2.39-2.274z"/></g></g></svg>