<svg xmlns="http://www.w3.org/2000/svg" viewBox="0 0 40 40" width="50px" height="50px"><path fill="#dff0fe" d="M2,31.5c-0.827,0-1.5-0.673-1.5-1.5V10c0-0.827,0.673-1.5,1.5-1.5h26.709 c0.592,0.001,1.135,0.218,1.528,0.612l8.233,8.402c0.665,0.665,1.029,1.543,1.029,2.478c0,0.935-0.364,1.814-1.025,2.475 l-8.236,8.328c-0.447,0.447-1.005,0.704-1.53,0.704H2z M32,17.5c-1.379,0-2.5,1.122-2.5,2.5s1.121,2.5,2.5,2.5s2.5-1.122,2.5-2.5 S33.379,17.5,32,17.5z"/><path fill="#4788c7" d="M28.708,9c0.459,0.001,0.877,0.166,1.169,0.459l8.244,8.413c1.17,1.17,1.17,3.073-0.004,4.247 l-8.23,8.322C29.537,30.791,29.096,31,28.705,31H2c-0.551,0-1-0.449-1-1V10c0-0.551,0.449-1,1-1H28.708 M32,23 c1.654,0,3-1.346,3-3s-1.346-3-3-3s-3,1.346-3,3S30.346,23,32,23 M28.709,8H2c-1.105,0-2,0.895-2,2v20c0,1.1,0.9,2,2,2h26.705 c0.001,0,0.002,0,0.003,0c0.708,0,1.386-0.352,1.886-0.853l8.234-8.326c1.562-1.562,1.562-4.095,0-5.657l-8.237-8.406 C30.092,8.259,29.415,8.001,28.709,8L28.709,8z M32,22c-1.105,0-2-0.896-2-2c0-1.105,0.895-2,2-2s2,0.895,2,2 C34,21.104,33.105,22,32,22L32,22z"/></svg>