<svg fill="#000000" xmlns="http://www.w3.org/2000/svg" viewBox="0 0 24 24" width="50px" height="50px"><path d="M 11.65625 2.34375 C 10.054688 2.457031 8.515625 3.351563 7.65625 4.84375 C 6.449219 6.933594 6.945313 9.554688 8.6875 11.09375 L 7 14 C 6.3125 14.003906 5.648438 14.359375 5.28125 15 C 4.730469 15.957031 5.042969 17.164063 6 17.71875 C 6.957031 18.269531 8.167969 17.957031 8.71875 17 C 9.085938 16.359375 9.0625 15.597656 8.71875 15 L 11.375 10.4375 L 10.5 9.9375 C 9.066406 9.109375 8.578125 7.277344 9.40625 5.84375 C 10.234375 4.410156 12.066406 3.921875 13.5 4.75 C 14.933594 5.578125 15.421875 7.410156 14.59375 8.84375 L 16.34375 9.84375 C 17.722656 7.457031 16.886719 4.378906 14.5 3 C 13.605469 2.484375 12.617188 2.277344 11.65625 2.34375 Z M 11.75 5.34375 C 11.492188 5.375 11.238281 5.457031 11 5.59375 C 10.042969 6.144531 9.730469 7.386719 10.28125 8.34375 C 10.648438 8.984375 11.3125 9.339844 12 9.34375 L 14.625 13.90625 L 15.5 13.40625 C 16.933594 12.578125 18.765625 13.066406 19.59375 14.5 C 20.421875 15.933594 19.933594 17.765625 18.5 18.59375 C 17.066406 19.421875 15.234375 18.933594 14.40625 17.5 L 12.65625 18.5 C 14.035156 20.886719 17.113281 21.722656 19.5 20.34375 C 21.886719 18.964844 22.722656 15.886719 21.34375 13.5 C 20.136719 11.410156 17.613281 10.511719 15.40625 11.25 L 13.71875 8.34375 C 14.0625 7.746094 14.085938 6.984375 13.71875 6.34375 C 13.304688 5.625 12.523438 5.246094 11.75 5.34375 Z M 7 11 C 4.242188 11 2 13.242188 2 16 C 2 18.757813 4.242188 21 7 21 C 9.414063 21 11.441406 19.277344 11.90625 17 L 15.28125 17 C 15.628906 17.59375 16.261719 18 17 18 C 18.105469 18 19 17.105469 19 16 C 19 14.894531 18.105469 14 17 14 C 16.261719 14 15.628906 14.40625 15.28125 15 L 10 15 L 10 16 C 10 17.652344 8.652344 19 7 19 C 5.347656 19 4 17.652344 4 16 C 4 14.347656 5.347656 13 7 13 Z"/></svg>