<?xml version="1.0" encoding="iso-8859-1"?>
<!-- Generator: Adobe Illustrator 19.0.0, SVG Export Plug-In . SVG Version: 6.00 Build 0)  -->
<svg version="1.1" id="Layer_1" xmlns="http://www.w3.org/2000/svg" xmlns:xlink="http://www.w3.org/1999/xlink" x="0px" y="0px"
	 viewBox="0 0 512 512" style="enable-background:new 0 0 512 512;" xml:space="preserve">
<g>
	<g>
		<path d="M268.555,193.478c-3.781-10.443-15.312-15.842-25.755-12.062l-65.406,23.683l-53.674-39.702l53.833,21.08l0.059-3.738
			c0.798-16.237-11.52-30.212-27.816-31.368l-50.893-3.612c-8.34-0.591-16.547,2.325-22.643,8.047s-9.526,13.73-9.463,22.089
			l1.112,146.272H53.672L32.05,153.434c-1.115-8.815-9.164-15.057-17.981-13.939c-8.815,1.116-15.055,9.167-13.94,17.981
			l23.403,184.799c1.018,8.04,7.857,14.067,15.96,14.067H97.59v65.881L59.374,453.42c-4.747,3.876-5.456,10.867-1.579,15.614
			c3.876,4.749,10.867,5.455,15.614,1.579l24.18-19.739v11.143c0,6.129,4.968,11.097,11.097,11.097s11.097-4.968,11.097-11.097
			v-11.143l24.18,19.739c4.751,3.877,11.74,3.167,15.614-1.579c3.876-4.747,3.168-11.739-1.579-15.614l-38.216-31.197v-65.881
			h52.976c8.037,0,14.679-5.901,15.877-13.602l3.866,0.998l13.839,108.301c1.69,13.23,13.786,22.569,26.996,20.879
			c13.22-1.689,22.568-13.775,20.879-26.996l-15.91-124.52c-1.251-9.795-8.344-17.839-17.905-20.307l-50.253-12.974l1.225-17.268
			c-8.395,0.193-16.467-3.597-21.688-10.165L99.801,197.73l62.343,46.114c5.326,3.938,12.372,5.07,18.806,2.741l75.544-27.353
			C266.936,215.452,272.336,203.92,268.555,193.478z"/>
	</g>
</g>
<g>
	<g>
		<circle cx="134.79" cy="83.272" r="44.386"/>
	</g>
</g>
<g>
	<g>
		<path d="M495.354,259.883H270.076c-9.193,0-16.646,7.453-16.646,16.646s7.453,16.646,16.646,16.646h2.219v168.842
			c0,6.129,4.968,11.097,11.097,11.097s11.097-4.968,11.097-11.097V293.175H472.05v168.842c0,6.129,4.968,11.097,11.097,11.097
			s11.097-4.968,11.097-11.097V293.175c11.525,0,17.756-8.326,17.756-16.646C512,267.336,504.548,259.883,495.354,259.883z"/>
	</g>
</g>
<g>
	<g>
		<path d="M387.493,160.116c-5.375-2.945-12.118-0.975-15.065,4.4l-33.463,61.078c-6.261,0-52.524,0-60.176,0
			c-6.129,0-11.097,4.968-11.097,11.097c0,0.169,0.019,0.333,0.026,0.5c0.264,5.895,5.113,10.597,11.072,10.597h66.75
			c4.054,0,7.785-2.211,9.732-5.765l36.622-66.843C394.838,169.806,392.867,163.061,387.493,160.116z"/>
	</g>
</g>
<g>
</g>
<g>
</g>
<g>
</g>
<g>
</g>
<g>
</g>
<g>
</g>
<g>
</g>
<g>
</g>
<g>
</g>
<g>
</g>
<g>
</g>
<g>
</g>
<g>
</g>
<g>
</g>
<g>
</g>
</svg>
